<?xml version="1.0" encoding="UTF-8"?>
<svg width="160px" height="20px" viewBox="0 0 160 20" version="1.1" xmlns="http://www.w3.org/2000/svg" xmlns:xlink="http://www.w3.org/1999/xlink">
    <!-- Generator: Sketch 57.1 (83088) - https://sketch.com -->
    <title>Group 4</title>
    <desc>Created with Sketch.</desc>
    <g id="Page-1" stroke="none" stroke-width="1" fill="none" fill-rule="evenodd">
        <g id="Mainpage" transform="translate(-37.000000, -38.000000)" fill="#2C2AD1" fill-rule="nonzero">
            <g id="Group-4" transform="translate(37.000000, 38.000000)">
                <polygon id="Path" points="0 20 0 0 8.05031447 0 8.05031447 20"></polygon>
                <polygon id="Path" points="12.0754717 4.82580645 12.0754717 0 41.2578616 0 41.2578616 4.82580645 30.8067289 4.82580645 30.8067289 20 22.5266044 20 22.5266044 4.82580645"></polygon>
                <path d="M57.186665,15.5444305 C59.2255519,15.5444305 60.754717,15.2690864 61.8251326,14.6933667 C62.8955482,14.1426783 63.6091585,13.3917397 63.9914498,12.4906133 L72.4528302,13.3166458 C71.7647059,15.4693367 70.1845686,17.1214018 67.7633905,18.2728411 C65.3422124,19.4242804 61.8251326,20 57.2376372,20 C54.8674312,20 52.701114,19.7997497 50.7386854,19.3742178 C48.7762568,18.9737171 47.0941752,18.3479349 45.6924405,17.5219024 C44.2907058,16.6958698 43.2202902,15.6445557 42.4302216,14.3929912 C41.665639,13.1414268 41.2578616,11.6645807 41.2578616,9.98748436 C41.2578616,8.26032541 41.665639,6.75844806 42.4811937,5.48185232 C43.2967485,4.20525657 44.3926501,3.17897372 45.8198709,2.37797247 C47.2470917,1.57697121 48.9546594,0.976220275 50.917088,0.57571965 C52.9050027,0.175219024 55.0203478,0 57.3140954,0 C61.8506187,0 65.3167263,0.600750939 67.7379044,1.77722153 C70.1590825,2.95369212 71.7137337,4.58072591 72.4273441,6.63329161 L63.9659637,7.45932416 C63.5327003,6.58322904 62.7681177,5.85732165 61.7231882,5.30663329 C60.6782587,4.75594493 59.2000658,4.45556946 57.3140954,4.45556946 C55.1987504,4.45556946 53.4147244,4.90613267 51.9620175,5.83229036 C50.5093106,6.73341677 49.7957003,8.13516896 49.7957003,9.98748436 C49.7957003,11.7897372 50.4838246,13.1664581 51.8855593,14.1176471 C53.31278,15.068836 55.0713199,15.5444305 57.186665,15.5444305 Z" id="Path"></path>
                <path d="M94.4432772,0 L105.660377,20 L97.1057976,20 L94.8870306,15.7935484 L82.9796473,15.7935484 L80.7608802,20 L72.4528302,20 L83.6699304,0 L94.4432772,0 Z M85.444944,11.2258065 L92.4710398,11.2258065 L88.9703184,4.54193548 L85.444944,11.2258065 Z" id="Shape"></path>
                <path d="M105.660377,14.2428035 L114.098273,13.416771 C114.322288,14.1176471 114.969442,14.6683354 116.014845,15.0938673 C117.060248,15.5193992 118.454119,15.6946183 120.171567,15.6946183 C121.889015,15.6946183 123.158433,15.5694618 124.054493,15.2941176 C124.925662,15.0187735 125.373692,14.6683354 125.373692,14.1927409 C125.373692,13.8423029 125.149677,13.5168961 124.676756,13.2665832 C124.203836,13.0162703 123.233104,12.7909887 121.764562,12.6157697 L116.189079,11.864831 C114.86988,11.689612 113.600462,11.4643304 112.405716,11.1889862 C111.21097,10.9136421 110.165567,10.5381727 109.294397,10.0876095 C108.423228,9.63704631 107.726293,9.06132666 107.203591,8.38548185 C106.70578,7.70963705 106.431984,6.85857322 106.431984,5.88235294 C106.431984,4.05506884 107.60184,2.62828536 109.966442,1.57697121 C112.306154,0.525657071 115.566816,0 119.723537,0 C124.154055,0 127.489388,0.525657071 129.729538,1.55193992 C131.969687,2.57822278 133.338667,3.95494368 133.836478,5.68210263 L125.398582,6.50813517 C125.249239,5.9824781 124.726537,5.48185232 123.855368,5.00625782 C122.984199,4.53066333 121.590328,4.30538173 119.623975,4.30538173 C118.05587,4.30538173 116.861124,4.43053817 116.064627,4.70588235 C115.268129,4.98122653 114.894771,5.33166458 114.894771,5.78222778 C114.894771,6.23279099 115.218348,6.58322904 115.865502,6.80851064 C116.512656,7.03379224 117.558059,7.23404255 119.026602,7.43429287 L125.74705,8.31038798 C128.335667,8.66082603 130.351801,9.28660826 131.745672,10.1877347 C133.139543,11.0888611 133.836478,12.3404255 133.836478,13.942428 C133.836478,15.844806 132.666622,17.3216521 130.326911,18.3979975 C127.987199,19.4743429 124.552303,20 119.997333,20 C115.840612,20 112.57995,19.5494368 110.165567,18.6232791 C107.751183,17.6971214 106.257751,16.2202753 105.660377,14.2428035 Z" id="Path"></path>
                <polygon id="Path" points="136.855346 20 136.855346 0 160 0 160 4.41290323 143.512685 4.41290323 143.512685 7.81935484 159.245848 7.81935484 159.245848 12.1032258 143.512685 12.1032258 143.512685 15.5870968 159.843969 15.5870968 159.843969 20"></polygon>
            </g>
        </g>
    </g>
</svg>